<svg xmlns="http://www.w3.org/2000/svg" width="160" height="32.502" viewBox="0 0 160 32.502">
  <g id="logo-foxconn" transform="translate(0 0.5)">
    <path id="Union_61" data-name="Union 61" d="M6635.616,11747.323l-1.99-2.326a1.422,1.422,0,0,0-1.916-.067l-1.984,2.326h-4.962l4.564-5.384a1.309,1.309,0,0,0,.065-1.925l-4.629-5.318h4.962l1.984,2.323a1.347,1.347,0,0,0,1.916,0l1.99-2.323h5.024l-4.629,5.383a1.367,1.367,0,0,0,0,1.929l4.629,5.383Zm-42.616,0v-8.44a4.1,4.1,0,0,1,3.971-4.254h9.2v2.789h-8.538a.442.442,0,0,0-.4.469v1.86a.439.439,0,0,0,.4.463h7.875v2.2h-7.276a.936.936,0,0,0-.993.993v3.924Zm109.974-.067v-9.437a.428.428,0,0,0-.4-.4h-6.221a.428.428,0,0,0-.4.4v9.37h-4.237v-12.625h11.25a4.36,4.36,0,0,1,4.233,4.252v8.44Zm-17.533,0v-9.437a.431.431,0,0,0-.4-.4h-6.218a.386.386,0,0,0-.4.4v9.438h-4.236v-12.627h11.253a4.407,4.407,0,0,1,4.231,4.254v8.373Zm-21.05,0h-3.045a4.523,4.523,0,0,1-4.7-4.319v-3.988a4.525,4.525,0,0,1,4.7-4.319h6.616a4.11,4.11,0,0,1,4.236,4.263v4.016a4.248,4.248,0,0,1-4.366,4.349Zm-3.508-9.437v6.247a.445.445,0,0,0,.463.4h6.023a.445.445,0,0,0,.463-.4l.065-6.309c0-.271-.2-.4-.46-.4h-6.091A.455.455,0,0,0,6660.882,11737.818Zm-15.012,9.438a4.289,4.289,0,0,1-4.237-4.319v-3.988a4.191,4.191,0,0,1,4.237-4.252h8.936v2.789h-8.473c-.266,0-.4.2-.4.469v6.244a.38.38,0,0,0,.4.4h8.473v2.656Zm-30.1,0h-3.045a4.524,4.524,0,0,1-4.7-4.319v-3.988a4.526,4.526,0,0,1,4.7-4.319h6.616a4.11,4.11,0,0,1,4.236,4.263v4.016a4.252,4.252,0,0,1-4.369,4.349Zm-3.508-9.437v6.247a.441.441,0,0,0,.463.4h3.045l2.978,0a.443.443,0,0,0,.46-.4l.068-6.3c0-.271-.2-.4-.466-.4h-6.085A.452.452,0,0,0,6612.257,11737.818Zm96.813-1.456a2.353,2.353,0,1,1,2.353,2.364A2.359,2.359,0,0,1,6709.07,11736.362Zm.25,0a2.1,2.1,0,0,0,3.47,1.606h-.38a.523.523,0,0,1-.035-.108,1.953,1.953,0,0,1-.021-.254l-.026-.533a.461.461,0,0,0-.233-.425.988.988,0,0,0-.389-.057h-.982v1.377h-.442v-3.213h1.489a1.515,1.515,0,0,1,.607.105.766.766,0,0,1,.454.761.782.782,0,0,1-.463.767.679.679,0,0,1,.289.2.725.725,0,0,1,.109.4l.015.431a1.321,1.321,0,0,0,.032.274.327.327,0,0,0,.089.163,2.109,2.109,0,1,0-3.583-1.5Zm1.4-.136h1a.841.841,0,0,0,.48-.121.5.5,0,0,0,.177-.442.475.475,0,0,0-.248-.469.8.8,0,0,0-.354-.064h-1.056Z" transform="translate(-6553.776 -11726.247)" fill="#fff"/>
    <path id="Ellipse_311" data-name="Ellipse 311" d="M2.228-.125A2.363,2.363,0,1,1-.125,2.238,2.361,2.361,0,0,1,2.228-.125Zm0,4.477a2.114,2.114,0,1,0-2.1-2.114A2.111,2.111,0,0,0,2.228,4.352Z" transform="translate(155.419 7.877)" fill="#fff"/>
    <path id="Path_13861" data-name="Path 13861" d="M17.734,2.7v8.773H11.847V2.7H.07L0,32.011H11.777V23.169h5.828l.06,8.773H29.442V2.7Zm8.734,26.328H20.649V23.109a2.964,2.964,0,0,0-2.845-2.8H11.847a3.026,3.026,0,0,0-2.974,2.8v5.975h-5.9V5.624h5.9V14.4H22.037a5.015,5.015,0,0,1,4.431,4.521Z" transform="translate(0 -0.01)" fill="#e83434" fill-rule="evenodd"/>
    <path id="Union_62" data-name="Union 62" d="M6593,11736.574a2.565,2.565,0,1,1,2.563,2.578A2.572,2.572,0,0,1,6593,11736.574Zm.271,0a2.291,2.291,0,0,0,3.781,1.753h-.411a.418.418,0,0,1-.042-.115,2.279,2.279,0,0,1-.023-.276l-.029-.584a.494.494,0,0,0-.25-.462,1.075,1.075,0,0,0-.424-.062H6594.8v1.5h-.486v-3.5h1.626a1.65,1.65,0,0,1,.66.117.83.83,0,0,1,.5.828.912.912,0,0,1-.133.516.963.963,0,0,1-.371.321.739.739,0,0,1,.315.221.77.77,0,0,1,.118.439l.018.471a1.3,1.3,0,0,0,.033.3.362.362,0,0,0,.1.178,2.3,2.3,0,1,0-3.9-1.639Zm1.532-.145h1.087a.91.91,0,0,0,.524-.133.542.542,0,0,0,.191-.483.517.517,0,0,0-.268-.509.873.873,0,0,0-.386-.071H6594.8Z" transform="translate(-6562.455 -11733.999)" fill="#e83434"/>
    <path id="Path_13862" data-name="Path 13862" d="M26.489,18.93V29.037H20.67V23.122a2.964,2.964,0,0,0-2.845-2.8H11.868a3.026,3.026,0,0,0-2.974,2.8V29.1h-5.9V5.636h5.9v8.773H22.058a5.015,5.015,0,0,1,4.431,4.521" transform="translate(-0.021 -0.023)" fill="#fff" fill-rule="evenodd"/>
    <path id="Union_60" data-name="Union 60" d="M6593,11736.574a2.565,2.565,0,1,1,2.563,2.578A2.572,2.572,0,0,1,6593,11736.574Zm.271,0a2.291,2.291,0,0,0,3.781,1.753h-.411a.418.418,0,0,1-.042-.115,2.279,2.279,0,0,1-.023-.276l-.029-.584a.494.494,0,0,0-.25-.462,1.075,1.075,0,0,0-.424-.062H6594.8v1.5h-.486v-3.5h1.626a1.65,1.65,0,0,1,.66.117.83.83,0,0,1,.5.828.912.912,0,0,1-.133.516.963.963,0,0,1-.371.321.739.739,0,0,1,.315.221.77.77,0,0,1,.118.439l.018.471a1.3,1.3,0,0,0,.033.3.362.362,0,0,0,.1.178,2.3,2.3,0,1,0-3.9-1.639Zm1.532-.145h1.087a.91.91,0,0,0,.524-.133.542.542,0,0,0,.191-.483.517.517,0,0,0-.268-.509.873.873,0,0,0-.386-.071H6594.8Z" transform="translate(-6562.455 -11733.999)" fill="#e83434" stroke="rgba(0,0,0,0)" stroke-width="1"/>
    <path id="Union_55" data-name="Union 55" d="M5197.534,12064.24a1.542,1.542,0,0,1-.727-.761,3.4,3.4,0,0,1-.212-1.326v-3.061h.869v3.055a2.766,2.766,0,0,0,.124.963.9.9,0,0,0,.418.454,1.578,1.578,0,0,0,.745.164,1.463,1.463,0,0,0,1.069-.321,1.843,1.843,0,0,0,.315-1.26v-3.055h.872v3.061a3.511,3.511,0,0,1-.191,1.266,1.629,1.629,0,0,1-.7.781,2.549,2.549,0,0,1-1.305.3A2.788,2.788,0,0,1,5197.534,12064.24Zm-5.79-.1a2.4,2.4,0,0,1-.941-.993,2.9,2.9,0,0,1-.318-1.326,2.8,2.8,0,0,1,.745-2.067,2.607,2.607,0,0,1,1.923-.751,2.758,2.758,0,0,1,1.39.354,2.358,2.358,0,0,1,.948.984,3.06,3.06,0,0,1,.324,1.42,3.019,3.019,0,0,1-.342,1.444,2.312,2.312,0,0,1-.972.972,2.923,2.923,0,0,1-1.35.324A2.75,2.75,0,0,1,5191.744,12064.137Zm.155-3.915a2.1,2.1,0,0,0-.524,1.6,1.94,1.94,0,0,0,.505,1.418,1.82,1.82,0,0,0,2.541,0,2.075,2.075,0,0,0,.5-1.486,2.5,2.5,0,0,0-.215-1.068,1.614,1.614,0,0,0-.624-.7,1.77,1.77,0,0,0-.927-.246A1.81,1.81,0,0,0,5191.9,12060.222Zm-11.363,3.942a2.279,2.279,0,0,1-1.018-.975,2.943,2.943,0,0,1-.342-1.414,3.179,3.179,0,0,1,.339-1.444,2.219,2.219,0,0,1,.984-1,3.165,3.165,0,0,1,1.465-.327,3.026,3.026,0,0,1,1.087.188,1.858,1.858,0,0,1,.778.526,2.272,2.272,0,0,1,.424.876l.021.075-.793.209-.021-.072a1.8,1.8,0,0,0-.291-.594,1.2,1.2,0,0,0-.484-.339,1.947,1.947,0,0,0-.717-.131,2.216,2.216,0,0,0-.821.14,1.542,1.542,0,0,0-.551.354,1.686,1.686,0,0,0-.327.49,2.524,2.524,0,0,0-.2,1.008,2.4,2.4,0,0,0,.239,1.121,1.515,1.515,0,0,0,.693.656,2.368,2.368,0,0,0,1.859.052,2.489,2.489,0,0,0,.621-.33v-.848h-1.593v-.76l2.45-.006v2.034l-.033.021a4.079,4.079,0,0,1-1.108.617,3.482,3.482,0,0,1-1.178.206A3.3,3.3,0,0,1,5180.536,12064.164Zm-12.89,0a2.281,2.281,0,0,1-1.017-.975,2.943,2.943,0,0,1-.342-1.414,3.179,3.179,0,0,1,.339-1.444,2.219,2.219,0,0,1,.984-1,3.161,3.161,0,0,1,1.462-.327,3.038,3.038,0,0,1,1.09.188,1.879,1.879,0,0,1,.778.526,2.322,2.322,0,0,1,.424.876l.021.075-.793.209-.024-.072a1.8,1.8,0,0,0-.288-.594,1.2,1.2,0,0,0-.484-.339,1.948,1.948,0,0,0-.718-.131,2.213,2.213,0,0,0-.82.14,1.549,1.549,0,0,0-.551.354,1.694,1.694,0,0,0-.327.49,2.525,2.525,0,0,0-.2,1.008,2.366,2.366,0,0,0,.239,1.121,1.51,1.51,0,0,0,.69.656,2.369,2.369,0,0,0,1.859.052,2.475,2.475,0,0,0,.624-.33v-.848H5169v-.76l2.447-.006v2.034l-.03.021a4.079,4.079,0,0,1-1.108.617,3.484,3.484,0,0,1-1.178.206A3.3,3.3,0,0,1,5167.646,12064.164Zm-6.016-.027a2.427,2.427,0,0,1-.945-.993,2.9,2.9,0,0,1-.318-1.326,2.806,2.806,0,0,1,.748-2.067,2.607,2.607,0,0,1,1.923-.751,2.74,2.74,0,0,1,1.387.354,2.351,2.351,0,0,1,.951.984,3.06,3.06,0,0,1,.324,1.42,3.014,3.014,0,0,1-.342,1.444,2.3,2.3,0,0,1-.975.972,2.908,2.908,0,0,1-1.351.324A2.745,2.745,0,0,1,5161.63,12064.137Zm.154-3.915a2.092,2.092,0,0,0-.523,1.6,1.95,1.95,0,0,0,.5,1.418,1.82,1.82,0,0,0,2.541,0,2.063,2.063,0,0,0,.5-1.486,2.5,2.5,0,0,0-.215-1.068,1.636,1.636,0,0,0-.624-.7,1.783,1.783,0,0,0-.926-.246A1.812,1.812,0,0,0,5161.784,12060.222Zm-10.243,3.915a2.413,2.413,0,0,1-.942-.993,2.9,2.9,0,0,1-.318-1.326,2.816,2.816,0,0,1,.745-2.067,2.6,2.6,0,0,1,1.922-.751,2.758,2.758,0,0,1,1.39.354,2.321,2.321,0,0,1,.948.984,3.257,3.257,0,0,1-.015,2.864,2.337,2.337,0,0,1-.975.972,2.916,2.916,0,0,1-1.351.324A2.755,2.755,0,0,1,5151.542,12064.137Zm.154-3.915a2.1,2.1,0,0,0-.524,1.6,1.938,1.938,0,0,0,.506,1.418,1.819,1.819,0,0,0,2.54,0,2.063,2.063,0,0,0,.5-1.486,2.489,2.489,0,0,0-.218-1.068,1.6,1.6,0,0,0-.624-.7,1.769,1.769,0,0,0-.927-.246A1.816,1.816,0,0,0,5151.7,12060.222Zm-16.632,3.924a2.225,2.225,0,0,1-.863-1.02,3.449,3.449,0,0,1-.291-1.414,3,3,0,0,1,.33-1.444,2.246,2.246,0,0,1,.954-.945,2.882,2.882,0,0,1,1.347-.32,2.377,2.377,0,0,1,1.411.411,2.112,2.112,0,0,1,.8,1.148l.024.078-.854.194-.021-.067a1.533,1.533,0,0,0-.518-.781,1.436,1.436,0,0,0-.857-.245,1.729,1.729,0,0,0-1,.275,1.419,1.419,0,0,0-.56.728,2.894,2.894,0,0,0-.167.966,2.938,2.938,0,0,0,.2,1.12,1.38,1.38,0,0,0,.593.7,1.753,1.753,0,0,0,.881.233,1.521,1.521,0,0,0,.972-.315,1.615,1.615,0,0,0,.536-.938l.018-.076.869.209-.021.076a2.362,2.362,0,0,1-.838,1.326,2.4,2.4,0,0,1-1.478.457A2.769,2.769,0,0,1,5135.064,12064.146Zm-37.584-.009a2.434,2.434,0,0,1-.941-.993,2.9,2.9,0,0,1-.318-1.326,2.816,2.816,0,0,1,.745-2.067,2.613,2.613,0,0,1,1.926-.751,2.747,2.747,0,0,1,1.387.354,2.345,2.345,0,0,1,.951.984,3.1,3.1,0,0,1,.321,1.42,3.018,3.018,0,0,1-.339,1.444,2.3,2.3,0,0,1-.975.972,2.906,2.906,0,0,1-1.35.324A2.758,2.758,0,0,1,5097.48,12064.137Zm.158-3.915a2.092,2.092,0,0,0-.524,1.6,1.95,1.95,0,0,0,.5,1.418,1.82,1.82,0,0,0,2.541,0,2.063,2.063,0,0,0,.5-1.486,2.453,2.453,0,0,0-.218-1.068,1.594,1.594,0,0,0-.624-.7,1.764,1.764,0,0,0-.923-.246A1.81,1.81,0,0,0,5097.638,12060.222Zm104.4,4.188v-5.316h2.119a5.355,5.355,0,0,1,.839.048,1.8,1.8,0,0,1,.7.255,1.4,1.4,0,0,1,.46.526,1.7,1.7,0,0,1-.288,1.911,2.262,2.262,0,0,1-1.644.479h-1.311v2.1Zm.872-2.861h1.323a1.481,1.481,0,0,0,.936-.229.787.787,0,0,0,.263-.636.827.827,0,0,0-.154-.506.734.734,0,0,0-.412-.279,3.353,3.353,0,0,0-.648-.042h-1.308Zm-13.758,2.861-.739-1.108c-.206-.3-.375-.538-.512-.705a1.58,1.58,0,0,0-.345-.327.982.982,0,0,0-.3-.13,2.215,2.215,0,0,0-.382-.021h-.754v2.292h-.872v-5.319h2.48a3.39,3.39,0,0,1,1.126.145,1.269,1.269,0,0,1,.639.521,1.5,1.5,0,0,1,.236.82,1.338,1.338,0,0,1-.394.981,1.827,1.827,0,0,1-.96.463,2.009,2.009,0,0,1,.236.16,3.686,3.686,0,0,1,.605.7l1.023,1.525Zm-3.034-3.04h1.462a2.394,2.394,0,0,0,.742-.091.74.74,0,0,0,.515-.7.681.681,0,0,0-.251-.542,1.286,1.286,0,0,0-.833-.218h-1.635Zm-12.247,3.04v-2.237l-2.156-3.079h1.06l1.09,1.59c.169.251.336.511.488.766.148-.239.321-.5.527-.806l1.072-1.55h1.026l-2.234,3.079v2.237Zm-17.525,0v-5.316h.872v4.554h2.664v.763Zm-7.754,0-.021-.03-2.7-3.86v3.891h-.841v-5.316h.854l.021.033,2.7,3.852v-3.885h.842v5.316Zm-5.465,0v-2.431h-2.662v2.431h-.869v-5.316h.869v2.119h2.662v-2.119H5144v5.316Zm-14.043,0v-5.316h4.066v.763h-3.2v1.426h2.995v.761h-2.995v1.6h3.325v.763Zm-3.258,0v-4.554h-1.784v-.763h4.445v.763h-1.79v4.554Zm-5.32,0v-5.316h.869v5.316Zm-1.483,0-.021-.048-.612-1.515h-2.159l-.594,1.563h-.929l2.144-5.316h.872l2.283,5.316Zm-1.971-3.685-.554,1.411h1.611l-.523-1.326c-.121-.306-.224-.575-.3-.809A6.491,6.491,0,0,1,5117.055,12060.725Zm-3.621,3.685v-2.431h-2.658v2.431h-.869v-5.316h.869v2.119h2.658v-2.119h.872v5.316Zm-7.551,0-.024-.03-2.7-3.86v3.891h-.842v-5.316h.854l.024.033,2.7,3.852v-3.885h.842v5.316Zm-11.351,0v-2.431h-2.662v2.431H5091v-5.316h.869v2.119h2.662v-2.119h.869v5.316Z" transform="translate(-5052.072 -12033.076)" fill="#fff"/>
    <rect id="Rectangle_7648" data-name="Rectangle 7648" width="160" height="32" fill="none"/>
  </g>
</svg>
