<svg xmlns="http://www.w3.org/2000/svg" width="125.44" height="28.219" viewBox="0 0 125.44 28.219">
  <defs>
    <style>
      .cls-1 {
        fill: #0068b6;
        fill-rule: evenodd;
      }
    </style>
  </defs>
  <path id="logo.svg" class="cls-1" d="M1745.75,67.369c-5.99,0-9.34-3.936-9.61-8.914h9.11a73.6,73.6,0,0,0-9.04-2.076c0.58-4.593,3.94-8.114,9.54-8.114,6.69,0,9.49,4.277,9.49,9.552s-2.95,9.552-9.49,9.552m0-23.6c-8.43,0-14.33,5.081-15.46,11.75-1.89-.22-3.93-0.408-6.09-0.538V44.2h-5.96V54.786l-0.61,0a109.452,109.452,0,0,0-12.83.755V44.2h-5.96V56.415a72.7,72.7,0,0,0-8.84,2.041h8.84V71.5h5.96V58.455h13.44V71.5h5.96V58.455h5.91C1730.4,65.985,1736.5,72,1745.75,72c10.35,0,15.67-6.32,15.67-14.115s-5.53-14.114-15.67-14.114m44.55,0.57h-6.97l-8.2,11.529-8.25-11.529h-6.75l12,15.941V71.429h5.89V60.488Zm5.7,15.183,3.63-8.548,3.79,8.548H1796Zm12.7,11.9h6.75L1802.3,44.341h-5.39l-12.43,27.088h6.47l3.18-7.485h11.25Z" transform="translate(-1690 -43.781)"/>
</svg>
